<svg width="176" height="24" viewBox="0 0 176 24" fill="none" xmlns="http://www.w3.org/2000/svg">
<g clip-path="url(#clip0_15382_136046)">
<path d="M163.885 24C170.512 24 175.885 18.6274 175.885 12C175.885 5.37258 170.512 0 163.885 0C157.257 0 151.885 5.37258 151.885 12C151.885 18.6274 157.257 24 163.885 24Z" fill="#FFE500"/>
<path d="M164.853 19.8461C164.853 20.101 164.647 20.3077 164.392 20.3077H163.377C163.122 20.3077 162.915 20.101 162.915 19.8461V15.6C162.915 13.102 164.986 11.0308 167.484 11.0308H171.73C171.985 11.0308 172.192 11.2374 172.192 11.4924V12.5077C172.192 12.7626 171.985 12.9693 171.73 12.9693H164.853V19.8461Z" fill="#002D67"/>
<path d="M162.916 4.15392C162.916 3.89902 163.122 3.69238 163.377 3.69238H164.392C164.647 3.69238 164.854 3.89902 164.854 4.15392V8.40008C164.854 10.8981 162.829 12.9693 160.331 12.9693H156.039C155.784 12.9693 155.577 12.7626 155.577 12.5077V11.4924C155.577 11.2374 155.784 11.0308 156.039 11.0308H162.916V4.15392Z" fill="#002D67"/>
<path d="M146.346 1.83667V14.7866C146.346 16.641 145.949 18.2635 145.156 19.6545C144.363 21.0451 143.25 22.1166 141.818 22.8688C140.386 23.6207 138.743 23.9968 136.888 23.9968C135.034 23.9968 133.396 23.6207 131.974 22.8688C130.553 22.1166 129.445 21.0451 128.652 19.6545C127.859 18.2635 127.462 16.641 127.462 14.7866V1.83667H132.5V14.0448C132.5 15.652 132.881 16.9036 133.643 17.8001C134.406 18.6962 135.487 19.1444 136.888 19.1444C138.31 19.1444 139.402 18.6962 140.165 17.8001C140.927 16.9036 141.308 15.652 141.308 14.0448V1.83667H146.346Z" fill="#004BAD"/>
<path d="M111.349 18.4027L109.587 23.4714H104.395L112.368 1.83667H118.673L126.647 23.4714H121.455L119.662 18.4027H111.349ZM116.665 9.87242C116.294 8.80099 115.923 7.54411 115.552 6.1018H115.49C115.099 7.54411 114.717 8.80099 114.347 9.87242L112.739 14.4775H118.272L116.665 9.87242Z" fill="#004BAD"/>
<path d="M102.484 19.3762C101.608 20.8702 100.393 22.0136 98.8371 22.807C97.2815 23.6001 95.5249 23.9968 93.5675 23.9968C91.4864 23.9968 89.596 23.5126 87.8961 22.5442C86.1962 21.5758 84.8569 20.2314 83.8782 18.5108C82.8995 16.7905 82.4102 14.8381 82.4102 12.6541C82.4102 10.5112 82.9047 8.57436 83.8937 6.84358C84.8827 5.11281 86.2323 3.758 87.9425 2.77941C89.6526 1.80057 91.5379 1.31128 93.5984 1.31128C96.1121 1.31128 98.1829 1.87281 99.8107 2.99563C101.438 4.11871 102.582 5.5249 103.241 7.21446L98.2035 9.16159C97.3999 7.08054 95.8546 6.04001 93.5675 6.04001C92.4549 6.04001 91.4504 6.33356 90.5541 6.92091C89.6578 7.50801 88.9521 8.3065 88.437 9.31612C87.9219 10.3257 87.6643 11.4384 87.6643 12.654C87.6643 13.8903 87.9219 15.0236 88.437 16.0538C88.9521 17.084 89.6681 17.9031 90.585 18.5108C91.5019 19.1188 92.5476 19.4226 93.722 19.4226C95.2674 19.4226 96.4676 19.0723 97.3227 18.3718C98.1777 17.6712 98.6774 16.7337 98.8216 15.5593H92.733V11.3869H103.643C103.746 12.1492 103.798 13.0558 103.798 14.1067C103.798 16.1259 103.36 17.8825 102.484 19.3762Z" fill="#004BAD"/>
<path d="M66.0323 1.83667L73.2335 13.1176C73.8723 14.1479 74.4389 15.1472 74.9334 16.1156H74.9952C74.9334 14.8587 74.9025 13.6224 74.9025 12.4068V1.83667H79.6621V23.4714H74.3462L67.1449 12.4068C66.4649 11.3147 65.785 10.0785 65.1051 8.69797H65.0432C65.1257 10.3257 65.1669 11.8195 65.1669 13.1794V23.4714H60.4072V1.83667H66.0323Z" fill="#004BAD"/>
<path d="M56.4691 1.83667V23.4714H51.4004V1.83667H56.4691Z" fill="#004BAD"/>
<path d="M33.8905 18.4027L32.1289 23.4714H26.9365L34.9105 1.83667H41.2154L49.1894 23.4714H43.997L42.2045 18.4027H33.8905ZM39.2065 9.87242C38.8356 8.80099 38.4647 7.54411 38.0939 6.1018H38.032C37.6406 7.54411 37.2594 8.80099 36.8885 9.87242L35.2813 14.4775H40.8137L39.2065 9.87242Z" fill="#004BAD"/>
<path d="M7.45402 1.83667L11.4101 12.6849C11.884 14.0448 12.2755 15.4047 12.5845 16.7646H12.6464C12.9554 15.4253 13.3469 14.0654 13.8208 12.6849L17.7769 1.83667H24.7309V23.4714H20.1258V12.0359C20.1258 10.779 20.1773 9.28519 20.2803 7.55442H20.2185C19.7034 9.26459 19.2501 10.7172 18.8586 11.9123L14.6862 23.4714H10.5756L6.37228 11.9123C5.96019 10.7172 5.50689 9.26459 5.01238 7.55442H4.95057C5.05359 9.28519 5.10511 10.779 5.10511 12.0359L5.13601 23.4714H0.5V1.83667H7.45402Z" fill="#004BAD"/>
</g>
<defs>
<clipPath id="clip0_15382_136046">
<rect width="175.385" height="24" fill="white" transform="translate(0.5)"/>
</clipPath>
</defs>
</svg>
